<?xml version="1.0" encoding="iso-8859-1"?>
<!-- Generator: Adobe Illustrator 19.0.0, SVG Export Plug-In . SVG Version: 6.00 Build 0)  -->
<svg version="1.1" id="Capa_1" xmlns="http://www.w3.org/2000/svg" xmlns:xlink="http://www.w3.org/1999/xlink" x="0px" y="0px"
	 viewBox="0 0 512 512" style="enable-background:new 0 0 512 512;" xml:space="preserve">
<path style="fill:#F56C6C;" d="M256,79.656L55.609,191.875c0,0,0,304.595,0,312.611h136.266v-88.172h128.25v88.172h136.266V191.875
	L256,79.656z M256,175.843c-13.281,0-24.047-10.766-24.047-24.047S242.719,127.75,256,127.75s24.047,10.766,24.047,24.047
	S269.281,175.843,256,175.843z"/>
<path style="fill:#DB4D4D;" d="M79.656,207.906L280.472,93.359L256,79.656L55.609,191.875c0,0,0,304.595,0,312.611h24.047
	C79.656,440.397,79.656,207.906,79.656,207.906z"/>
<rect x="7.515" y="23.546" style="fill:#956B64;" width="496.971" height="24.047"/>
<path d="M151.796,287.562c4.15,0,7.515-3.365,7.515-7.515v-56.611h16.532c4.15,0,7.515-3.365,7.515-7.515s-3.365-7.515-7.515-7.515
	H127.75c-4.15,0-7.515,3.365-7.515,7.515s3.365,7.515,7.515,7.515h16.532v56.611C144.282,284.197,147.646,287.562,151.796,287.562z"
	/>
<path d="M190.58,283.408l9.946-19.893h30.79l9.946,19.893c1.954,3.909,6.978,5.319,10.692,3.018c3.255-2.017,4.461-6.318,2.75-9.739
	l-32.063-64.125c-2.714-5.431-10.728-5.432-13.442,0l-32.063,64.125c-1.857,3.712-0.352,8.226,3.361,10.082
	C184.211,288.625,188.724,287.12,190.58,283.408z M215.922,232.726l7.88,15.76h-15.761L215.922,232.726z"/>
<path d="M108.358,382.956c3.711,1.858,8.225,0.351,10.082-3.361l9.946-19.893h30.79l9.946,19.893
	c1.954,3.909,6.978,5.319,10.692,3.018c3.255-2.017,4.461-6.318,2.75-9.739l-32.063-64.125c-2.714-5.431-10.728-5.432-13.442,0
	l-32.063,64.125C103.14,376.587,104.645,381.1,108.358,382.956z M143.781,328.913l7.88,15.76H135.9L143.781,328.913z"/>
<path d="M276.686,382.956c3.713,1.858,8.226,0.351,10.082-3.361l9.946-19.893h30.79l9.946,19.893
	c1.954,3.909,6.978,5.319,10.692,3.018c3.255-2.017,4.461-6.318,2.75-9.739l-32.063-64.125c-2.714-5.431-10.728-5.432-13.442,0
	l-32.063,64.125C271.469,376.587,272.974,381.1,276.686,382.956z M312.11,328.913l7.88,15.76h-15.761L312.11,328.913z"/>
<path d="M272.031,208.407c-4.15,0-7.515,3.365-7.515,7.515v64.125c0,4.15,3.365,7.515,7.515,7.515s7.515-3.365,7.515-7.515v-16.428
	l27.869,22.296c3.461,2.768,8.703,1.872,11.06-1.873c2.009-3.191,1.271-7.51-1.671-9.863l-32.743-26.194l32.743-26.195
	c3.24-2.592,3.766-7.321,1.173-10.563s-7.323-3.767-10.563-1.173l-27.868,22.297v-16.428
	C279.546,211.772,276.181,208.407,272.031,208.407z"/>
<path d="M384.25,223.436c4.15,0,7.515-3.365,7.515-7.515s-3.365-7.515-7.515-7.515h-40.078c-4.15,0-7.515,3.365-7.515,7.515v64.125
	c0,4.15,3.365,7.515,7.515,7.515h40.078c4.15,0,7.515-3.365,7.515-7.515s-3.365-7.515-7.515-7.515h-32.564v-17.033h24.548
	c4.15,0,7.515-3.365,7.515-7.515s-3.365-7.515-7.515-7.515h-24.548v-17.033H384.25z"/>
<path d="M208.886,378.873c1.106,2.95,4.025,4.944,7.175,4.875c3.148-0.069,5.992-2.143,6.991-5.137l8.902-26.707l8.902,26.707
	c1.004,3.011,3.888,5.108,7.06,5.138c3.122,0.029,6.009-1.952,7.105-4.876l24.047-64.125c1.458-3.886-0.512-8.217-4.398-9.675
	c-3.887-1.458-8.217,0.512-9.675,4.398l-16.594,44.25l-9.319-27.957c-1.011-3.034-3.932-5.138-7.129-5.138
	c-3.198,0-6.118,2.105-7.129,5.138l-9.319,27.957l-16.594-44.25c-1.437-3.833-5.841-5.835-9.675-4.398s-5.835,5.84-4.398,9.675
	L208.886,378.873z"/>
<path d="M376.235,383.75c4.15,0,7.515-3.365,7.515-7.515v-28.951l29.861-29.861c2.935-2.935,2.935-7.693,0-10.627
	c-2.935-2.935-7.693-2.935-10.627,0l-26.749,26.749l-26.749-26.749c-2.935-2.935-7.693-2.935-10.627,0
	c-2.935,2.935-2.935,7.693,0,10.627l29.861,29.861v28.951C368.72,380.385,372.085,383.75,376.235,383.75z"/>
<path d="M504.485,40.078H263.515v-9.018h240.971c4.15,0,7.515-3.365,7.515-7.515s-3.365-7.515-7.515-7.515H263.515V7.515
	C263.515,3.365,260.15,0,256,0c-4.15,0-7.515,3.365-7.515,7.515v8.517H7.515C3.365,16.031,0,19.396,0,23.546
	s3.365,7.515,7.515,7.515h240.971v9.018H7.515C3.365,40.078,0,43.443,0,47.593s3.365,7.515,7.515,7.515h240.971v20.143
	L51.936,185.318c-2.373,1.33-3.843,3.837-3.843,6.557v312.611c0,4.15,3.365,7.515,7.515,7.515h136.266
	c4.15,0,7.515-3.365,7.515-7.515v-80.658h113.221v80.658c0,4.15,3.365,7.515,7.515,7.515h136.266c4.15,0,7.515-3.365,7.515-7.515
	V323.799c0-4.15-3.365-7.515-7.515-7.515s-7.515,3.365-7.515,7.515v173.171H327.64v-80.658c0-4.15-3.365-7.515-7.515-7.515h-128.25
	c-4.15,0-7.515,3.365-7.515,7.515v80.658H63.123V196.279L248.485,92.477v28.67c-13.786,3.381-24.047,15.837-24.047,30.651
	c0,17.403,14.159,31.562,31.562,31.562s31.562-14.159,31.562-31.562c0-14.814-10.261-27.269-24.047-30.651v-28.67l185.362,103.803
	v92.118c0,4.15,3.365,7.515,7.515,7.515s7.515-3.365,7.515-7.515v-96.522c0-2.72-1.47-5.227-3.842-6.557L263.515,75.251V55.108
	h240.971c4.15,0,7.515-3.365,7.515-7.515S508.635,40.078,504.485,40.078z M272.532,151.796c0,9.116-7.417,16.532-16.532,16.532
	c-9.116,0-16.532-7.416-16.532-16.532c0-6.409,3.673-11.965,9.018-14.707v14.707c0,4.15,3.365,7.515,7.515,7.515
	c4.15,0,7.515-3.365,7.515-7.515V137.09C268.859,139.831,272.532,145.388,272.532,151.796z"/>
<g>
</g>
<g>
</g>
<g>
</g>
<g>
</g>
<g>
</g>
<g>
</g>
<g>
</g>
<g>
</g>
<g>
</g>
<g>
</g>
<g>
</g>
<g>
</g>
<g>
</g>
<g>
</g>
<g>
</g>
</svg>
