<?xml version="1.0" encoding="iso-8859-1"?>
<!-- Generator: Adobe Illustrator 19.0.0, SVG Export Plug-In . SVG Version: 6.00 Build 0)  -->
<svg version="1.1" id="Capa_1" xmlns="http://www.w3.org/2000/svg" xmlns:xlink="http://www.w3.org/1999/xlink" x="0px" y="0px"
	 viewBox="0 0 512 512" style="enable-background:new 0 0 512 512;" xml:space="preserve">
<g>
	<g>
		<path d="M175.843,208.407H127.75c-4.15,0-7.515,3.365-7.515,7.515c0,4.15,3.365,7.515,7.515,7.515h16.532v56.611
			c0,4.15,3.365,7.515,7.515,7.515c4.15,0,7.515-3.365,7.515-7.515v-56.611h16.532c4.15,0,7.515-3.365,7.515-7.515
			C183.358,211.772,179.994,208.407,175.843,208.407z"/>
	</g>
</g>
<g>
	<g>
		<path d="M254.705,276.686l-32.063-64.125c-2.714-5.431-10.728-5.432-13.442,0l-32.063,64.125
			c-1.857,3.712-0.352,8.226,3.361,10.082c3.712,1.857,8.225,0.352,10.082-3.361l9.946-19.893h30.79l9.946,19.893
			c1.954,3.909,6.978,5.319,10.692,3.018C255.21,284.409,256.416,280.107,254.705,276.686z M208.041,248.485l7.88-15.76l7.88,15.76
			H208.041z"/>
	</g>
</g>
<g>
	<g>
		<path d="M182.565,372.874l-32.063-64.125c-2.714-5.431-10.728-5.432-13.442,0l-32.063,64.125
			c-1.857,3.712-0.352,8.226,3.361,10.082c3.711,1.858,8.225,0.351,10.082-3.361l9.946-19.893h30.79l9.946,19.893
			c1.954,3.909,6.978,5.319,10.692,3.018C183.07,380.596,184.275,376.295,182.565,372.874z M135.9,344.673l7.88-15.76l7.88,15.76
			H135.9z"/>
	</g>
</g>
<g>
	<g>
		<path d="M350.893,372.874l-32.063-64.125c-2.714-5.431-10.728-5.432-13.442,0l-32.063,64.125
			c-1.857,3.712-0.352,8.226,3.361,10.082c3.713,1.858,8.226,0.351,10.082-3.361l9.946-19.893h30.79l9.946,19.893
			c1.954,3.909,6.978,5.319,10.692,3.018C351.398,380.596,352.604,376.295,350.893,372.874z M304.229,344.673l7.88-15.76l7.88,15.76
			H304.229z"/>
	</g>
</g>
<g>
	<g>
		<path d="M316.804,274.179l-32.743-26.194l32.743-26.195c3.24-2.592,3.766-7.321,1.173-10.563s-7.323-3.767-10.563-1.173
			l-27.868,22.297v-16.428c0-4.15-3.365-7.515-7.515-7.515s-7.515,3.365-7.515,7.515v64.125c0,4.15,3.365,7.515,7.515,7.515
			s7.515-3.365,7.515-7.515v-16.428l27.869,22.296c3.461,2.768,8.703,1.872,11.06-1.873
			C320.484,280.851,319.745,276.532,316.804,274.179z"/>
	</g>
</g>
<g>
	<g>
		<path d="M384.25,272.532h-32.564v-17.033h24.548c4.15,0,7.515-3.365,7.515-7.515c0-4.15-3.365-7.515-7.515-7.515h-24.548v-17.033
			h32.564c4.15,0,7.515-3.365,7.515-7.515c0-4.15-3.365-7.515-7.515-7.515h-40.078c-4.15,0-7.515,3.365-7.515,7.515v64.125
			c0,4.15,3.365,7.515,7.515,7.515h40.078c4.15,0,7.515-3.365,7.515-7.515C391.765,275.897,388.401,272.532,384.25,272.532z"/>
	</g>
</g>
<g>
	<g>
		<path d="M274.67,305.073c-3.887-1.458-8.217,0.512-9.675,4.398l-16.594,44.25l-9.319-27.957c-1.011-3.034-3.932-5.138-7.129-5.138
			c-3.198,0-6.118,2.105-7.129,5.138l-9.319,27.957l-16.594-44.25c-1.437-3.833-5.841-5.835-9.675-4.398s-5.835,5.84-4.398,9.675
			l24.048,64.125c1.106,2.95,4.025,4.944,7.175,4.875c3.148-0.069,5.992-2.143,6.991-5.137l8.902-26.707l8.902,26.707
			c1.004,3.011,3.888,5.108,7.06,5.138c3.122,0.029,6.009-1.952,7.105-4.876l24.047-64.125
			C280.526,310.862,278.556,306.531,274.67,305.073z"/>
	</g>
</g>
<g>
	<g>
		<path d="M413.611,306.796c-2.935-2.935-7.693-2.935-10.627,0l-26.749,26.749l-26.749-26.749c-2.935-2.935-7.693-2.935-10.627,0
			c-2.935,2.935-2.935,7.693,0,10.627l29.861,29.861v28.951c0,4.15,3.365,7.515,7.515,7.515c4.15,0,7.515-3.365,7.515-7.515v-28.951
			l29.861-29.861C416.546,314.488,416.546,309.73,413.611,306.796z"/>
	</g>
</g>
<g>
	<g>
		<path d="M504.485,40.078H263.515v-9.018h240.971c4.15,0,7.515-3.365,7.515-7.515c0-4.15-3.365-7.515-7.515-7.515H263.515V7.515
			C263.515,3.365,260.15,0,256,0s-7.515,3.365-7.515,7.515v8.517H7.515C3.365,16.031,0,19.396,0,23.546
			c0,4.15,3.365,7.515,7.515,7.515h240.971v9.018H7.515C3.365,40.078,0,43.443,0,47.593s3.365,7.515,7.515,7.515h240.971v20.143
			L51.936,185.318c-2.373,1.33-3.843,3.836-3.843,6.557v312.611c0,4.15,3.365,7.515,7.515,7.515h136.266
			c4.15,0,7.515-3.365,7.515-7.515v-80.658h113.221v80.658c0,4.15,3.365,7.515,7.515,7.515h136.266c4.15,0,7.515-3.365,7.515-7.515
			V323.799c0-4.15-3.365-7.515-7.515-7.515c-4.15,0-7.515,3.365-7.515,7.515v173.171H327.64v-80.658c0-4.15-3.365-7.515-7.515-7.515
			h-128.25c-4.15,0-7.515,3.365-7.515,7.515v80.658H63.123V196.279L248.485,92.477v28.67c-13.786,3.381-24.047,15.837-24.047,30.651
			c0,17.403,14.159,31.562,31.562,31.562s31.562-14.159,31.562-31.562c0-14.814-10.261-27.269-24.047-30.651v-28.67l185.362,103.803
			v92.118c0,4.15,3.365,7.515,7.515,7.515c4.15,0,7.515-3.365,7.515-7.515v-96.523c0-2.72-1.47-5.227-3.843-6.557L263.515,75.251
			V55.108h240.971c4.15,0,7.515-3.365,7.515-7.515S508.635,40.078,504.485,40.078z M272.532,151.796
			c0,9.116-7.417,16.532-16.532,16.532s-16.532-7.416-16.532-16.532c0-6.409,3.673-11.965,9.018-14.707v14.707
			c0,4.15,3.365,7.515,7.515,7.515s7.515-3.365,7.515-7.515V137.09C268.859,139.831,272.532,145.388,272.532,151.796z"/>
	</g>
</g>
<g>
</g>
<g>
</g>
<g>
</g>
<g>
</g>
<g>
</g>
<g>
</g>
<g>
</g>
<g>
</g>
<g>
</g>
<g>
</g>
<g>
</g>
<g>
</g>
<g>
</g>
<g>
</g>
<g>
</g>
</svg>
